<svg xmlns="http://www.w3.org/2000/svg" width="1250" height="660" viewBox="0 0 1250 660" role="img" aria-labelledby="title desc">
<title id="title">Impact count by business domain</title>
<desc id="desc">Impact count by business domain generated from the committed synthetic impact assessment.</desc>
<rect width="100%" height="100%" fill="#f7f9fc"/>
<style>
.title{font:700 34px system-ui,sans-serif;fill:#10233f}.h2{font:700 22px system-ui,sans-serif;fill:#10233f}.body{font:16px system-ui,sans-serif;fill:#33445d}.small{font:14px system-ui,sans-serif;fill:#53647a}.metric{font:700 30px system-ui,sans-serif;fill:#10233f}.label{font:700 14px system-ui,sans-serif;fill:#53647a;letter-spacing:.6px}.box{fill:#fff;stroke:#c7d2e3;stroke-width:2}.direct{fill:#e8f0ff;stroke:#2f6fed;stroke-width:2}.indirect{fill:#e9f8f3;stroke:#138a68;stroke-width:2}.conditional{fill:#fff5da;stroke:#c68400;stroke-width:2}.blocked{fill:#feecec;stroke:#c33f49;stroke-width:2}.dark{fill:#10233f}.white{fill:#fff}.arrow{stroke:#62748a;stroke-width:3;fill:none;marker-end:url(#arrow)}
</style>
<defs><marker id="arrow" markerWidth="10" markerHeight="10" refX="9" refY="3" orient="auto"><path d="M0,0 L0,6 L9,3 z" fill="#62748a"/></marker></defs>
<text x="55" y="70" class="title">Impact concentration by business domain</text><text x="55" y="142" class="small">CUSTOMER_AND_COMMUNICATION</text><rect x="470" y="120" width="650" height="30" rx="7" fill="#2f6fed"/><text x="1135" y="142" class="body">9</text><text x="55" y="190" class="small">PROCESS_STEP</text><rect x="470" y="168" width="505" height="30" rx="7" fill="#2f6fed"/><text x="990" y="190" class="body">7</text><text x="55" y="238" class="small">ROLE_AND_TEAM</text><rect x="470" y="216" width="433" height="30" rx="7" fill="#2f6fed"/><text x="918" y="238" class="body">6</text><text x="55" y="286" class="small">CONTROL_AND_POLICY</text><rect x="470" y="264" width="361" height="30" rx="7" fill="#2f6fed"/><text x="846" y="286" class="body">5</text><text x="55" y="334" class="small">DATA_AND_INFORMATION</text><rect x="470" y="312" width="361" height="30" rx="7" fill="#2f6fed"/><text x="846" y="334" class="body">5</text><text x="55" y="382" class="small">SYSTEM_AND_APPLICATION</text><rect x="470" y="360" width="361" height="30" rx="7" fill="#2f6fed"/><text x="846" y="382" class="body">5</text><text x="55" y="430" class="small">PILOT_AND_OPERATIONAL_GUARDRAIL</text><rect x="470" y="408" width="288" height="30" rx="7" fill="#2f6fed"/><text x="773" y="430" class="body">4</text><text x="55" y="478" class="small">AUTHORITY_AND_SEGREGATION</text><rect x="470" y="456" width="216" height="30" rx="7" fill="#2f6fed"/><text x="701" y="478" class="body">3</text><text x="55" y="526" class="small">INTEGRATION_AND_EXTERNAL_SERVICE</text><rect x="470" y="504" width="216" height="30" rx="7" fill="#2f6fed"/><text x="701" y="526" class="body">3</text><text x="55" y="574" class="small">REPORTING_AND_METRICS</text><rect x="470" y="552" width="216" height="30" rx="7" fill="#2f6fed"/><text x="701" y="574" class="body">3</text>
</svg>
