<svg xmlns="http://www.w3.org/2000/svg" width="1400" height="900" viewBox="0 0 1400 900" role="img" aria-labelledby="title desc">
<title id="title">Deterministic Impact Room interface preview</title>
<desc id="desc">Deterministic Impact Room interface preview generated from the committed synthetic impact assessment.</desc>
<rect width="100%" height="100%" fill="#f7f9fc"/>
<style>
.title{font:700 34px system-ui,sans-serif;fill:#10233f}.h2{font:700 22px system-ui,sans-serif;fill:#10233f}.body{font:16px system-ui,sans-serif;fill:#33445d}.small{font:14px system-ui,sans-serif;fill:#53647a}.metric{font:700 30px system-ui,sans-serif;fill:#10233f}.label{font:700 14px system-ui,sans-serif;fill:#53647a;letter-spacing:.6px}.box{fill:#fff;stroke:#c7d2e3;stroke-width:2}.direct{fill:#e8f0ff;stroke:#2f6fed;stroke-width:2}.indirect{fill:#e9f8f3;stroke:#138a68;stroke-width:2}.conditional{fill:#fff5da;stroke:#c68400;stroke-width:2}.blocked{fill:#feecec;stroke:#c33f49;stroke-width:2}.dark{fill:#10233f}.white{fill:#fff}.arrow{stroke:#62748a;stroke-width:3;fill:none;marker-end:url(#arrow)}
</style>
<defs><marker id="arrow" markerWidth="10" markerHeight="10" refX="9" refY="3" orient="auto"><path d="M0,0 L0,6 L9,3 z" fill="#62748a"/></marker></defs>

<rect x="0" y="0" width="1400" height="900" fill="#eef3f9"/>
<rect x="35" y="30" width="1330" height="840" rx="22" fill="#ffffff" stroke="#c7d2e3" stroke-width="2"/>
<text x="78" y="95" class="title">Business Change Impact Room</text>
<text x="78" y="132" class="body">Evidence-linked direct and indirect impacts with human authority preserved.</text>
<rect x="78" y="160" width="1245" height="58" rx="10" fill="#eef4ff" stroke="#2f6fed"/>
<text x="100" y="195" class="small">Assessment only — no implementation, budget, staffing, vendor, risk-acceptance or go-live authority.</text>
<g transform="translate(78,250)">
  <rect width="180" height="105" rx="14" class="direct"/><text x="20" y="34" class="label">DIRECT</text><text x="20" y="78" class="metric">36</text>
  <rect x="205" width="180" height="105" rx="14" class="indirect"/><text x="225" y="34" class="label">INDIRECT</text><text x="225" y="78" class="metric">12</text>
  <rect x="410" width="180" height="105" rx="14" class="conditional"/><text x="430" y="34" class="label">CONDITIONAL</text><text x="430" y="78" class="metric">3</text>
  <rect x="615" width="180" height="105" rx="14" class="box"/><text x="635" y="34" class="label">UNAFFECTED</text><text x="635" y="78" class="metric">6</text>
  <rect x="820" width="180" height="105" rx="14" class="box"/><text x="840" y="34" class="label">COLLISIONS</text><text x="840" y="78" class="metric">22</text>
  <rect x="1025" width="180" height="105" rx="14" class="blocked"/><text x="1045" y="34" class="label">BLOCKED</text><text x="1045" y="78" class="metric">5</text>
</g>
<g transform="translate(78,395)">
  <rect width="1245" height="390" rx="14" class="box"/>
  <rect width="1245" height="54" rx="14" class="dark"/>
  <text x="22" y="35" class="white" style="font:700 15px system-ui,sans-serif">ENTITY</text><text x="430" y="35" class="white" style="font:700 15px system-ui,sans-serif">CLASS</text><text x="620" y="35" class="white" style="font:700 15px system-ui,sans-serif">DOMAIN</text><text x="1040" y="35" class="white" style="font:700 15px system-ui,sans-serif">ATTENTION</text>
  <text x="22" y="95" class="body">Workflow orchestration system</text><text x="430" y="95" class="body">DIRECT</text><text x="620" y="95" class="body">SYSTEM_AND_APPLICATION</text><text x="1040" y="95" class="body">HIGH</text>
  <line x1="20" y1="118" x2="1225" y2="118" stroke="#d6deea"/>
  <text x="22" y="158" class="body">Screening interface</text><text x="430" y="158" class="body">INDIRECT</text><text x="620" y="158" class="body">INTEGRATION_AND_EXTERNAL_SERVICE</text><text x="1040" y="158" class="body">HIGH</text>
  <line x1="20" y1="181" x2="1225" y2="181" stroke="#d6deea"/>
  <text x="22" y="221" class="body">External screening service</text><text x="430" y="221" class="body">CONDITIONAL</text><text x="620" y="221" class="body">INTEGRATION_AND_EXTERNAL_SERVICE</text><text x="1040" y="221" class="body">CRITICAL</text>
  <line x1="20" y1="244" x2="1225" y2="244" stroke="#d6deea"/>
  <text x="22" y="284" class="body">Payroll processing</text><text x="430" y="284" class="body">EXPLICITLY_UNAFFECTED</text><text x="620" y="284" class="body">ROLE_AND_TEAM</text><text x="1040" y="284" class="body">LOW</text>
  <line x1="20" y1="307" x2="1225" y2="307" stroke="#d6deea"/>
  <text x="22" y="352" class="small">Trace view exposes relationship IDs, exact evidence references, conditions, gaps and digest.</text>
</g>
<text x="78" y="835" class="small">Deterministic interface preview — not a captured production screen.</text>

</svg>
